The Ghost Writer (2010) 1080P MKV AC3+DTS Eng-Sp-NLSubs

PLOT

A ghostwriter hired to complete the memoirs of a former British prime 
minister uncovers secrets that put his own life in jeopardy.

MM:    http://www.moviemeter.nl/film/59498

IMDB:    http://www.imdb.com/title/tt1139328/

INFO

Source......: 1080P BluRay 
FRAME RATE..: 23.976Fps 
VIDEO CODEC.: X264  
AUDIO 1.....: DTS 
AUDIO 2.....: AC3  
RESOLUTION..: 1920x824
RUNTIME.....: 128 MINS 
GENERE......: Drama/Mistery/Thriller
LANGUAGE....: English  
SUBTITLES...: English, Spanish & Dutch

Thans To bradje

Enjoy This Nice release

Player Info

      Format : Matroska
      File size : 9.32 GiB
      Duration : 2h 8mn
      Overall bit rate : 10.4 Mbps
      Encoded date : UTC 2010-07-21 11:26:31
      Writing application : mkvmerge v4.1.1 ('Bouncin' Back') gemaakt op Jul  3 2010 22:54:08
      Writing library : libebml v1.0.0 + libmatroska v1.0.0
   Video #1
      ID : 1
      Format : AVC
      Format/Info : Advanced Video Codec
      Format profile : High@L4.1
      Format settings, CABAC : Yes
      Format settings, ReFrames : 5 frames
      Muxing mode : Container profile=Unknown@4.1
      Codec ID : V_MPEG4/ISO/AVC
      Duration : 2h 8mn
      Bit rate : 8 026 Kbps
      Nominal bit rate : 8 235 Kbps
      Width : 1 920 pixels
      Height : 824 pixels
      Display aspect ratio : 2.35:1
      Frame rate : 23.976 fps
      Resolution : 24 bits
      Colorimetry : 4:2:0
      Scan type : Progressive
      Bits/(Pixel*Frame) : 0.212
      Stream size : 7.20 GiB (77%)
      Title : Video
      Writing library : x264 core 104 r1677 19df41a
      Encoding settings : cabac=1 / ref=5 / deblock=1:0:0 / analyse=0x3:0x133 / me=umh / subme=7 / 
psy=1 / psy_rd=1.00:0.00 / mixed_ref=1 / me_range=16 / chroma_me=1 / trellis=1 / 8x8dct=1 / cqm=0 / 
deadzone=21,11 / fast_pskip=0 / chroma_qp_offset=-2 / threads=12 / sliced_threads=0 / nr=0 / 
decimate=1 / interlaced=0 / constrained_intra=0 / bframes=3 / b_pyramid=2 / b_adapt=1 / b_bias=0 / 
direct=3 / weightb=1 / open_gop=0 / weightp=2 / keyint=240 / keyint_min=24 / scenecut=40 / 
intra_refresh=0 / rc_lookahead=40 / rc=2pass / mbtree=1 / bitrate=8235 / ratetol=1.0 / 
qcomp=0.60 / qpmin=10 / qpmax=51 / qpstep=4 / cplxblur=20.0 / qblur=0.5 / ip_ratio=1.40 / aq=1:1.00
   Audio #2
      ID : 2
      Format : DTS
      Format/Info : Digital Theater Systems
      Codec ID : A_DTS
      Duration : 2h 8mn
      Bit rate mode : Constant
      Bit rate : 1 510 Kbps
      Channel(s) : 6 channels
      Channel positions : Front: L C R, Surround: L R, LFE
      Sampling rate : 48.0 KHz
      Resolution : 24 bits
      Video delay : 11ms
      Stream size : 1.36 GiB (15%)
      Title : DTS
   Audio #3
      ID : 3
      Format : AC-3
      Format/Info : Audio Coding 3
      Codec ID : A_AC3
      Duration : 2h 8mn
      Bit rate mode : Constant
      Bit rate : 640 Kbps
      Channel(s) : 6 channels
      Channel positions : Front: L C R, Surround: L R, LFE
      Sampling rate : 48.0 KHz
      Stream size : 588 MiB (6%)
      Title : AC3
   Text #4
      ID : 4
      Format : UTF-8
      Codec ID : S_TEXT/UTF8
      Codec ID/Info : UTF-8 Plain Text
      Title : Subtitles
      Language : Dutch
   Text #5
      ID : 5
      Format : UTF-8
      Codec ID : S_TEXT/UTF8
      Codec ID/Info : UTF-8 Plain Text
      Title : Subtitles
   Text #6
      ID : 6
      Format : UTF-8
      Codec ID : S_TEXT/UTF8
      Codec ID/Info : UTF-8 Plain Text
      Title : Subtitles
      Language : Spanish 
